<?xml version="1.0" standalone="no"?>
<!DOCTYPE svg PUBLIC "-//W3C//DTD SVG 20010904//EN"
 "http://www.w3.org/TR/2001/REC-SVG-20010904/DTD/svg10.dtd">
<svg version="1.0" xmlns="http://www.w3.org/2000/svg"
 width="450.000000pt" height="450.000000pt" viewBox="0 0 450.000000 450.000000"
 preserveAspectRatio="xMidYMid meet">
<metadata>
Created by potrace 1.14, written by Peter Selinger 2001-2017
</metadata>
<g transform="translate(0.000000,450.000000) scale(0.100000,-0.100000)"
fill="#000000" stroke="none">
<path d="M0 2250 l0 -2250 2250 0 2250 0 0 2250 0 2250 -2250 0 -2250 0 0
-2250z m1500 750 l0 -500 -250 0 -250 0 0 500 0 500 250 0 250 0 0 -500z
m2000 0 l0 -500 -250 0 -250 0 0 500 0 500 250 0 250 0 0 -500z m-1000 -750
l0 -250 -250 0 -250 0 0 250 0 250 250 0 250 0 0 -250z m-1000 -1000 l0 -250
250 0 250 0 0 250 0 250 250 0 250 0 0 -250 0 -250 250 0 250 0 0 250 0 250
250 0 250 0 0 -250 0 -250 -250 0 -250 0 0 -250 0 -250 -250 0 -250 0 0 250 0
250 -250 0 -250 0 0 -250 0 -250 -250 0 -250 0 0 250 0 250 -250 0 -250 0 0
250 0 250 250 0 250 0 0 -250z"/>
</g>
</svg>
